<?xml version="1.0" encoding="utf-8"?>
<!-- Svg Vector Icons : http://www.onlinewebfonts.com/icon -->
<!DOCTYPE svg PUBLIC "-//W3C//DTD SVG 1.1//EN" "http://www.w3.org/Graphics/SVG/1.1/DTD/svg11.dtd">
<svg version="1.1" xmlns="http://www.w3.org/2000/svg" xmlns:xlink="http://www.w3.org/1999/xlink" x="0px" y="0px" viewBox="0 0 1000 1000" enable-background="new 0 0 1000 1000" xml:space="preserve">
<metadata> Svg Vector Icons : http://www.onlinewebfonts.com/icon </metadata>
<g><path d="M153.5,153.5C246,61,369.1,10,500,10c130.9,0,253.9,51,346.5,143.5S990,369.1,990,500s-51,253.9-143.5,346.5C754,939.1,630.9,990,500,990c-130.9,0-253.9-51-346.5-143.5C60.9,753.9,10,630.9,10,500C10,369.1,61,246.1,153.5,153.5z M500,938.4c241.7,0,438.4-196.7,438.4-438.4c0-241.8-196.7-438.4-438.4-438.4C258.2,61.6,61.6,258.3,61.6,500C61.6,741.8,258.2,938.4,500,938.4L500,938.4z"/><path d="M577.4,783.7c6.6,0,13.2-2.5,18.3-7.5c10.1-10.1,10.1-26.4,0-36.5L356,500.1l239.6-239.6c10.1-10.1,10.1-26.4,0-36.5c-10.1-10.1-26.4-10.1-36.5,0L301.3,481.9c-10.1,10.1-10.1,26.4,0,36.5l257.9,257.9C564.2,781.3,570.8,783.8,577.4,783.7L577.4,783.7z"/></g>
</svg>