<svg version="1.1" id="Layer_1" xmlns="http://www.w3.org/2000/svg" xmlns:xlink="http://www.w3.org/1999/xlink" x="0px" y="0px"
	 viewBox="0 0 512 512" style="enable-background:new 0 0 512 512;" xml:space="preserve">
<g>
	<path d="M437,75C388.7,26.6,324.4,0,256,0S123.3,26.6,75,75C26.6,123.3,0,187.6,0,256s26.6,132.7,75,181c48.3,48.4,112.6,75,181,75
		s132.7-26.6,181-75c48.4-48.3,75-112.6,75-181S485.4,123.3,437,75z M256,485.1C129.7,485.1,26.9,382.3,26.9,256S129.7,27,256,27
		s229.1,102.7,229.1,229S382.3,485.1,256,485.1z"/>
	<path d="M215.6,404.2c-3.4,0-6.9-1.3-9.5-3.9c-5.3-5.3-5.3-13.8,0-19.1L331.2,256L206,130.8c-5.3-5.3-5.3-13.8,0-19.1
		c5.3-5.3,13.8-5.3,19.1,0l134.7,134.7c5.3,5.3,5.3,13.8,0,19.1L225.1,400.3C222.4,403,219,404.3,215.6,404.2L215.6,404.2z"/>
</g>
</svg>
